<svg xmlns="http://www.w3.org/2000/svg" xmlns:xlink="http://www.w3.org/1999/xlink"><defs><path id="a" d="M0 0h384v384H0z"/><path id="a" d="M0 0h384v272H0z"/></defs><symbol id="icon-logo"><path d="M0 1.449C0 .741.58.161 1.256.161h7.18c5.087 0 8.436 2.704 8.436 7.147v.064c0 4.861-4.057 7.373-8.854 7.373H2.544v6.825c0 .708-.58 1.288-1.288 1.288C.58 22.859 0 22.279 0 21.571V1.449zm8.114 10.979c3.734 0 6.182-1.996 6.182-4.958v-.065c0-3.22-2.415-4.894-6.054-4.894H2.544v9.917h5.57zm13.615-11.14C21.729.58 22.308 0 22.983 0c.709 0 1.288.58 1.288 1.288v20.283c0 .708-.579 1.288-1.288 1.288-.676 0-1.255-.58-1.255-1.288V1.288zm9.141.032c0-.676.579-1.256 1.256-1.256h.354c.58 0 .934.29 1.288.74l13.684 17.45V1.256A1.256 1.256 0 0148.707 0c.676 0 1.223.58 1.223 1.256v20.348c0 .676-.482 1.191-1.158 1.191h-.129c-.548 0-.934-.322-1.32-.772L33.349 4.153v17.45c0 .676-.547 1.256-1.255 1.256-.677 0-1.224-.58-1.224-1.256V1.32zm25.43-.032C56.3.58 56.879 0 57.556 0c.708 0 1.287.58 1.287 1.288v12.331L71.689.451c.29-.258.58-.451.999-.451.676 0 1.224.612 1.224 1.256 0 .354-.161.644-.419.901l-7.984 7.92 8.564 10.561c.225.29.354.547.354.934 0 .676-.579 1.288-1.287 1.288-.483 0-.806-.258-1.03-.58l-8.403-10.463-4.862 4.861v4.894c0 .708-.579 1.288-1.287 1.288-.677 0-1.256-.58-1.256-1.288V1.288z"/></symbol><symbol id="icon-skype" viewBox="0 0 384.1 384"><clipPath id="b"><use xlink:href="#a" overflow="visible"/></clipPath><path clip-path="url(#b)" d="M372.9 232.8c27.8-125-81.7-238.5-210.2-216.7C92.9-27.2 0 21.7 0 104.8c0 19.3 5.3 37.4 14.6 53-25.8 125.3 84.5 237.1 213 213.9 15 7.9 32.1 12.4 50.2 12.4 79.2-.1 129.9-82.2 95.1-151.3zm-179.4 85.3c-37.5 0-74.1-9-95.7-40-32.3-45.7 10.3-68.5 31.2-51.1 17.4 14.7 12 50.3 63.2 50.3 22.6 0 50.4-9.6 50.4-32 0-45-99.9-23.7-139.6-72.8-14.6-18-17.3-49.7.6-72.7 31.2-40.2 122.9-42.6 162.3-12.3 36.4 28.2 26.6 65.5-2.8 65.5-35.3 0-16.8-46.2-73.8-46.2-41.3 0-57.6 29.4-28.5 43.7 38.7 19.2 140 13.2 140 89.6-.1 53.7-52 78-107.3 78zm0 0"/></symbol><symbol id="icon-vk" viewBox="-49 252.1 512 289.7"><path d="M391.6 436.4c17 16.6 34.9 32.2 50.1 50.4 6.7 8.1 13.1 16.5 18 25.9 6.9 13.4.7 28.1-11.3 28.9h-74.6c-19.2 1.6-34.6-6.1-47.5-19.3-10.3-10.5-19.9-21.7-29.8-32.6-4.1-4.4-8.3-8.6-13.4-11.9-10.2-6.6-19-4.6-24.8 6-5.9 10.8-7.3 22.8-7.9 34.8-.8 17.6-6.1 22.2-23.8 23-37.7 1.8-73.5-3.9-106.7-22.9-29.3-16.8-52-40.4-71.8-67.2C9.6 399.3-19.9 342-46.4 283c-6-13.3-1.6-20.4 13.1-20.7 24.3-.5 48.7-.4 73 0 9.9.1 16.4 5.8 20.3 15.2 13.2 32.4 29.3 63.2 49.5 91.7 5.4 7.6 10.9 15.2 18.7 20.5 8.6 5.9 15.2 4 19.3-5.7 2.6-6.1 3.7-12.7 4.3-19.2 1.9-22.5 2.2-45-1.2-67.4-2.1-14-10-23.1-23.9-25.7-7.1-1.4-6.1-4-2.6-8.1 6-7 11.6-11.4 22.9-11.4h84.3c13.3 2.6 16.2 8.6 18 21.9l.1 93.6c-.1 5.2 2.6 20.5 11.9 23.9 7.5 2.4 12.4-3.5 16.8-8.3 20.2-21.4 34.6-46.7 47.5-73 5.7-11.5 10.6-23.5 15.4-35.5 3.5-8.9 9.1-13.2 19.1-13l80.9.2c2.4 0 4.8 0 7.2.4 13.7 2.3 17.4 8.2 13.2 21.6-6.7 20.9-19.6 38.4-32.3 55.9-13.5 18.7-28 36.8-41.4 55.6-12.3 17.3-11.4 25.9 3.9 40.9z"/></symbol><symbol id="icon-youtube" viewBox="0 0 384 272"><clipPath id="b"><use xlink:href="#a" overflow="visible"/></clipPath><path clip-path="url(#b)" d="M375.5 38.9l.5 3.1c-4.6-16.5-17.2-29.2-33.1-33.8l-.3-.1C312.6 0 192.2 0 192.2 0S72-.2 41.8 8.1C25.5 12.8 13 25.5 8.4 41.7v.3c-11.2 58.4-11.3 128.6.5 191.2l-.5-3.2c4.6 16.5 17.2 29.2 33.1 33.8l.3.1c29.9 8.1 150.4 8.1 150.4 8.1s120.1 0 150.4-8.1c16.2-4.7 28.8-17.4 33.3-33.5l.1-.3c5.1-27.2 8-58.4 8-90.4v-3.5-3.7c0-32.1-2.9-63.3-8.5-93.6zM153.7 194.4V77.7L254 136.2l-100.3 58.2zm0 0"/></symbol></svg>